# xmcd
#
# Track frame offsets:
#	150
#	13460
#	31762
#	50127
#	67722
#	79336
#	90530
#	106938
#	117382
#	134944
#	145611
#	150503
#	191263
#	202843
#	223240
#	232320
#	243669
#
# Disc length: 3365 seconds
#
# Revision: 1
# Processed by: cddbd v1.5.2PL0 Copyright (c) Steve Scherf et al.
# Submitted via: audiograbber 1.82.02
#
DISCID=f50d2311
DTITLE=Bobby Darin - From Sea To Sea
DYEAR=1992
DGENRE=Vocal
TTITLE0=Splish Splash
TTITLE1=Early In The Morning
TTITLE2=Queen Of The Hop
TTITLE3=Plain Jane
TTITLE4=Don't Rain On My Parade
TTITLE5=A Quarter To Nine
TTITLE6=Once Upon A Time
TTITLE7=I Wish I Were In Love Again
TTITLE8=Mack The Knife
TTITLE9=If I Were A Carpenter
TTITLE10=One For My Baby One For The Road
TTITLE11=Monologue
TTITLE12=Girl Who Stood Beside Me
TTITLE13=Funny What Love Can Do
TTITLE14=Dream Lover
TTITLE15=Alright
TTITLE16=Thats All
EXTD=Deaconblue
EXTT0=
EXTT1=
EXTT2=
EXTT3=
EXTT4=
EXTT5=
EXTT6=
EXTT7=
EXTT8=
EXTT9=
EXTT10=
EXTT11=
EXTT12=
EXTT13=
EXTT14=
EXTT15=
EXTT16=
PLAYORDER=
